<svg xmlns="http://www.w3.org/2000/svg" xmlns:xlink="http://www.w3.org/1999/xlink" version="1.1" width="256" height="256" viewBox="0 0 256 256" xml:space="preserve">
<g style="stroke: none; stroke-width: 0; stroke-dasharray: none; stroke-linecap: butt; stroke-linejoin: miter; stroke-miterlimit: 10; fill: none; fill-rule: nonzero; opacity: 1;" transform="translate(1.4065934065934016 1.4065934065934016) scale(2.81 2.81)">
	<path d="M 70.174 64.528 L 87.84 82.194 c 1.559 1.559 1.559 4.087 0 5.647 l 0 0 c -1.559 1.559 -4.087 1.559 -5.647 0 L 64.528 70.174 L 70.174 64.528 z" style="stroke: none; stroke-width: 1; stroke-dasharray: none; stroke-linecap: butt; stroke-linejoin: miter; stroke-miterlimit: 10; fill: rgb(45,105,201); fill-rule: nonzero; opacity: 1;" transform=" matrix(1 0 0 1 0 0) " stroke-linecap="round"/>
	<path d="M 69.165 65.537 l -5.254 -5.254 c 12.217 -14.079 11.642 -35.411 -1.742 -48.795 c -13.995 -13.995 -36.686 -13.995 -50.681 0 c -13.995 13.995 -13.995 36.686 0 50.681 c 13.385 13.385 34.717 13.959 48.795 1.742 l 5.254 5.254 L 69.165 65.537 z" style="stroke: none; stroke-width: 1; stroke-dasharray: none; stroke-linecap: butt; stroke-linejoin: miter; stroke-miterlimit: 10; fill: rgb(158,173,197); fill-rule: nonzero; opacity: 1;" transform=" matrix(1 0 0 1 0 0) " stroke-linecap="round"/>
	<circle cx="36.83" cy="36.83" r="29.19" style="stroke: none; stroke-width: 1; stroke-dasharray: none; stroke-linecap: butt; stroke-linejoin: miter; stroke-miterlimit: 10; fill: rgb(249,249,249); fill-rule: nonzero; opacity: 1;" transform="  matrix(1 0 0 1 0 0) "/>
	<path d="M 22.273 46.062 h -1.801 c -2.461 0 -4.463 -2.003 -4.463 -4.464 c 0 -0.552 0.448 -1 1 -1 c 0.552 0 1 0.448 1 1 c 0 1.358 1.105 2.463 2.463 2.463 h 1.801 c 1.358 0 2.463 -1.105 2.463 -2.463 V 30.13 h -2.594 c -0.552 0 -1 -0.448 -1 -1 c 0 -0.552 0.448 -1 1 -1 h 3.595 c 0.552 0 1 0.448 1 1 v 12.469 C 26.737 44.059 24.734 46.062 22.273 46.062 z" style="stroke: none; stroke-width: 1; stroke-dasharray: none; stroke-linecap: butt; stroke-linejoin: miter; stroke-miterlimit: 10; fill: rgb(25,68,135); fill-rule: nonzero; opacity: 1;" transform=" matrix(1 0 0 1 0 0) " stroke-linecap="round"/>
	<path d="M 36.914 46.062 h -1.801 c -2.461 0 -4.463 -2.003 -4.463 -4.464 v -9.005 c 0 -2.461 2.002 -4.464 4.463 -4.464 h 1.801 c 2.461 0 4.463 2.002 4.463 4.464 v 9.005 C 41.377 44.059 39.375 46.062 36.914 46.062 z M 35.113 30.13 c -1.358 0 -2.463 1.105 -2.463 2.463 v 9.005 c 0 1.358 1.105 2.463 2.463 2.463 h 1.801 c 1.358 0 2.463 -1.105 2.463 -2.463 v -9.005 c 0 -1.358 -1.105 -2.463 -2.463 -2.463 H 35.113 z" style="stroke: none; stroke-width: 1; stroke-dasharray: none; stroke-linecap: butt; stroke-linejoin: miter; stroke-miterlimit: 10; fill: rgb(25,68,135); fill-rule: nonzero; opacity: 1;" transform=" matrix(1 0 0 1 0 0) " stroke-linecap="round"/>
	<path d="M 52.326 46.061 h -6.036 c -0.552 0 -1 -0.447 -1 -1 v -3.463 c 0 -0.552 0.448 -1 1 -1 c 0.553 0 1 0.448 1 1 v 2.463 h 5.036 c 0.932 0 1.691 -0.758 1.691 -1.691 v -2.584 c 0 -0.932 -0.759 -1.691 -1.691 -1.691 h -0.863 c -0.553 0 -1 -0.448 -1 -1 c 0 -0.552 0.447 -1 1 -1 h 0.863 c 2.036 0 3.691 1.656 3.691 3.691 v 2.584 C 56.017 44.405 54.361 46.061 52.326 46.061 z" style="stroke: none; stroke-width: 1; stroke-dasharray: none; stroke-linecap: butt; stroke-linejoin: miter; stroke-miterlimit: 10; fill: rgb(25,68,135); fill-rule: nonzero; opacity: 1;" transform=" matrix(1 0 0 1 0 0) " stroke-linecap="round"/>
	<path d="M 46.289 42.598 c -0.552 0 -1 -0.448 -1 -1 V 29.129 c 0 -0.552 0.448 -1 1 -1 h 6.036 c 2.036 0 3.691 1.656 3.691 3.692 v 2.492 c 0 2.086 -1.697 3.783 -3.783 3.783 H 47.29 v 3.502 C 47.29 42.15 46.842 42.598 46.289 42.598 z M 47.29 36.095 h 4.944 c 0.983 0 1.783 -0.799 1.783 -1.783 v -2.492 c 0 -0.933 -0.759 -1.691 -1.691 -1.691 H 47.29 V 36.095 z" style="stroke: none; stroke-width: 1; stroke-dasharray: none; stroke-linecap: butt; stroke-linejoin: miter; stroke-miterlimit: 10; fill: rgb(25,68,135); fill-rule: nonzero; opacity: 1;" transform=" matrix(1 0 0 1 0 0) " stroke-linecap="round"/>
	<path d="M 85.016 90.007 c -1.279 0 -2.557 -0.486 -3.53 -1.459 L 63.113 70.174 l 7.061 -7.061 l 18.373 18.373 c 1.947 1.946 1.947 5.113 0 7.061 C 87.574 89.52 86.295 90.007 85.016 90.007 z M 65.942 70.174 l 16.959 16.959 c 1.167 1.167 3.067 1.165 4.232 0 c 1.166 -1.167 1.166 -3.066 0 -4.232 L 70.174 65.942 L 65.942 70.174 z" style="stroke: none; stroke-width: 1; stroke-dasharray: none; stroke-linecap: butt; stroke-linejoin: miter; stroke-miterlimit: 10; fill: rgb(25,68,135); fill-rule: nonzero; opacity: 1;" transform=" matrix(1 0 0 1 0 0) " stroke-linecap="round"/>
	<path d="M 36.846 73.621 c -9.475 0 -18.93 -3.609 -26.067 -10.746 c -14.363 -14.362 -14.363 -37.733 0 -52.095 c 14.362 -14.362 37.733 -14.363 52.095 0 c 13.384 13.384 14.361 34.925 2.393 49.446 l 5.311 5.311 l -5.042 5.043 l -5.311 -5.312 C 53.448 70.854 45.139 73.62 36.846 73.621 z M 36.827 2.007 c -8.921 0 -17.842 3.395 -24.633 10.187 c -13.583 13.583 -13.583 35.683 0 49.266 c 12.867 12.866 33.7 13.61 47.433 1.695 l 0.704 -0.611 l 5.205 5.207 l 2.213 -2.214 l -5.206 -5.206 l 0.611 -0.703 c 11.915 -13.732 11.17 -34.568 -1.695 -47.433 C 54.669 5.403 45.748 2.007 36.827 2.007 z" style="stroke: none; stroke-width: 1; stroke-dasharray: none; stroke-linecap: butt; stroke-linejoin: miter; stroke-miterlimit: 10; fill: rgb(25,68,135); fill-rule: nonzero; opacity: 1;" transform=" matrix(1 0 0 1 0 0) " stroke-linecap="round"/>
	<path d="M 36.827 67.017 c -8.064 0 -15.645 -3.14 -21.347 -8.843 c -11.771 -11.771 -11.771 -30.924 0 -42.695 c 11.772 -11.772 30.925 -11.771 42.695 0 l 0 0 c 5.702 5.702 8.843 13.284 8.843 21.347 c 0 8.064 -3.14 15.646 -8.843 21.347 C 52.473 63.877 44.892 67.017 36.827 67.017 z M 36.827 8.651 c -7.219 0 -14.437 2.747 -19.933 8.243 c -10.991 10.991 -10.991 28.875 0 39.866 c 5.324 5.324 12.404 8.257 19.933 8.257 c 7.53 0 14.609 -2.932 19.933 -8.257 s 8.257 -12.403 8.257 -19.933 c 0 -7.529 -2.932 -14.609 -8.257 -19.933 l 0 0 C 51.266 11.399 44.045 8.651 36.827 8.651 z" style="stroke: none; stroke-width: 1; stroke-dasharray: none; stroke-linecap: butt; stroke-linejoin: miter; stroke-miterlimit: 10; fill: rgb(25,68,135); fill-rule: nonzero; opacity: 1;" transform=" matrix(1 0 0 1 0 0) " stroke-linecap="round"/>
</g>
</svg>